<?xml version="1.0" encoding="UTF-8"?>
<!-- Created with Inkscape (http://www.inkscape.org/) -->
<svg width="377.33" height="493.33" version="1.1" viewBox="0 0 377.33 493.33" xmlns="http://www.w3.org/2000/svg">
 <g>
  <path d="m17.119 166.52 174.3-153.29 169.63 152.51v19.453l-170.41-150.96-172.74 152.51z"/>
  <path d="m95.79 218.68c-4.8813-34.241 31.34-102.92 97.016-99.405 67.049 7.9378 83.187 47.284 91.858 97.102h13.943c-8.3159-53.171-32.552-97.531-98.691-106.93-69.399-8.3047-123.15 54.761-117.19 108.9z" opacity=".88" stroke-width=".99479"/>
  <path d="m39.501 406.92 1.7026-165.15c-1.5062-15.385-11.882-21.161-24.177-24.858h39.16l127.36 174.35-1.0216-154.6c-1.0583-8.4035-5.6582-15.197-16.686-19.069h47.333c-7.2964 3.5904-14.202 7.415-12.599 16.345v79.001l117.14 1.3621 0.34052-81.726c-0.67914-9.8771-8.9785-12.134-16.686-14.983h56.527c-11.289 3.6986-20.366 8.0291-19.069 15.324l-0.34052 175.37c0.35644 16.323 9.5576 20.586 19.75 23.496l-56.186-1.3621c9.5475-4.4416 16.396-10.11 16.005-19.069v-88.876l-117.14-0.34052-0.68104 109.65h-11.918l-134.17-178.77-1.3621 154.6c1.2028 10.005 4.6558 19.215 21.112 23.837l-55.846-0.68105c12.321-3.1737 20.9-9.8001 21.453-23.837z" opacity=".95"/>
  <path d="m17.707 467.88-0.34052 13.961 343.93 1.3621v-14.302z" opacity=".95"/>
 </g>
 <text x="27.234491" y="63.806522" fill="#000000" font-family="Tahoma" xml:space="preserve"><tspan x="27.234491" y="63.806522"/></text>
</svg>
