<?xml version="1.0" encoding="UTF-8" standalone="no"?>
<!DOCTYPE svg PUBLIC "-//W3C//DTD SVG 1.1//EN" "http://www.w3.org/Graphics/SVG/1.1/DTD/svg11.dtd">
<svg width="100%" height="100%" viewBox="0 0 323 75" version="1.1" xmlns="http://www.w3.org/2000/svg" xmlns:xlink="http://www.w3.org/1999/xlink" xml:space="preserve" xmlns:serif="http://www.serif.com/" style="fill-rule:evenodd;clip-rule:evenodd;stroke-linecap:round;stroke-linejoin:round;stroke-miterlimit:1.5;">
    <g transform="matrix(1,0,0,1,-380.283481,-319.019182)">
        <path d="M380.783,319.519L387.324,319.519L387.29,392.986L380.783,392.986L380.783,319.519Z" style="fill:none;stroke:black;stroke-width:1px;"/>
        <path d="M414.685,319.519L414.853,392.986L390.82,340.56L390.652,319.519L408.803,359.047L408.466,319.519L414.685,319.519Z" style="fill:none;stroke:black;stroke-width:1px;"/>
        <path d="M435.021,330.308L417.71,330.308L417.542,319.519L441.239,319.519L441.743,366.947L424.096,366.947L423.76,392.986L417.374,392.986L417.374,356.253L435.021,356.253L435.021,330.308Z" style="fill:none;stroke:black;stroke-width:1px;"/>
        <path d="M444.508,392.986L468.709,392.986L468.709,319.519L462.491,319.519L462.659,382.072L444.844,381.904L444.508,392.986Z" style="fill:none;stroke:black;stroke-width:1px;"/>
        <path d="M477.953,319.519L471.734,319.519L471.902,392.986L490.053,392.986L492.91,382.408L478.289,382.072L477.953,319.519Z" style="fill:none;stroke:black;stroke-width:1px;"/>
        <path d="M498.288,319.519L520.305,319.519L517.784,330.14L495.599,329.972L498.288,319.519Z" style="fill:none;stroke:black;stroke-width:1px;"/>
        <path d="M495.599,361.568L513.246,361.568L513.414,378.375L512.238,382.24L495.599,382.24L498.457,392.986L516.607,392.986L520.305,381.904L520.305,351.148L495.599,350.812L495.599,361.568Z" style="fill:none;stroke:black;stroke-width:1px;"/>
        <path d="M547.37,319.519L522.832,319.519L522.832,330.14L544.177,330.14L547.37,319.519Z" style="fill:none;stroke:black;stroke-width:1px;"/>
        <path d="M545.689,350.812L522.832,350.812L522.832,361.4L545.857,361.568L545.689,350.812Z" style="fill:none;stroke:black;stroke-width:1px;"/>
        <path d="M544.177,382.408L547.37,392.986L522.832,392.986L522.832,382.577L544.177,382.408Z" style="fill:none;stroke:black;stroke-width:1px;"/>
        <path d="M561.991,319.519L584.008,319.519L581.151,330.14L558.966,330.14L561.991,319.519Z" style="fill:none;stroke:black;stroke-width:1px;"/>
        <path d="M584.008,350.812L558.966,350.812L558.966,361.568L576.781,361.568L576.949,377.703L575.437,382.408L558.966,382.408L561.991,392.986L580.647,392.986L584.008,382.408L584.008,350.812Z" style="fill:none;stroke:black;stroke-width:1px;"/>
        <path d="M602.327,330.14L602.663,392.986L595.94,392.986L595.268,319.519L613.083,319.519L610.226,330.14L602.327,330.14Z" style="fill:none;stroke:black;stroke-width:1px;"/>
        <path d="M632.73,319.519L638.78,319.519L638.612,392.986L614.747,392.986L614.579,382.408L632.562,382.408L632.73,319.519Z" style="fill:none;stroke:black;stroke-width:1px;"/>
        <path d="M641.637,319.519L658.78,319.519L666.007,356.253L658.78,392.986L641.805,392.986L641.469,382.24L654.41,382.072L659.452,356.253L654.578,330.14L641.637,330.14L641.637,319.519Z" style="fill:none;stroke:black;stroke-width:1px;"/>
        <path d="M668.528,319.519L674.746,319.519L675.082,392.986L668.696,392.986L668.528,319.519Z" style="fill:none;stroke:black;stroke-width:1px;"/>
        <path d="M702.587,319.519L678.275,319.519L678.443,330.14L696.426,330.477L696.401,382.408L678.722,382.408L678.534,392.986L702.587,392.986L702.587,319.519Z" style="fill:none;stroke:black;stroke-width:1px;"/>
    </g>
</svg>
