<?xml version="1.0" encoding="UTF-8" standalone="no"?>
<!DOCTYPE svg PUBLIC "-//W3C//DTD SVG 1.1//EN" "http://www.w3.org/Graphics/SVG/1.1/DTD/svg11.dtd">
<svg width="100%" height="100%" viewBox="0 0 58 61" version="1.1" xmlns="http://www.w3.org/2000/svg" xmlns:xlink="http://www.w3.org/1999/xlink" xml:space="preserve" xmlns:serif="http://www.serif.com/" style="fill-rule:evenodd;clip-rule:evenodd;stroke-linecap:round;stroke-linejoin:round;stroke-miterlimit:1.5;">
    <g transform="matrix(1,0,0,1,-372.20381,-339.214532)">
        <g transform="matrix(1.07393,0,0,1.035461,-30.864159,-13.550119)">
            <path d="M428.72,354.53L428.72,385.432C428.72,393.074 422.739,399.278 415.37,399.278L388.671,399.278C381.302,399.278 375.321,393.074 375.321,385.432L375.321,354.53C375.321,346.888 381.302,340.684 388.671,340.684L415.37,340.684C422.739,340.684 428.72,346.888 428.72,354.53Z" style="fill:rgb(0,0,7);"/>
        </g>
        <g transform="matrix(1,0,0,0.637986,1.038909,142.266537)">
            <path d="M380.783,319.519L387.324,319.519L387.29,392.986L380.783,392.986L380.783,319.519Z" style="fill:rgb(249,64,0);stroke:black;stroke-width:1.19px;"/>
        </g>
        <g transform="matrix(1,0,0,0.637986,-98.488538,142.266537)">
            <path d="M498.288,319.519L520.305,319.519L517.784,330.14L495.599,329.972L498.288,319.519Z" style="fill:rgb(253,255,240);stroke:black;stroke-width:1.19px;"/>
        </g>
        <g transform="matrix(1,0,0,0.637986,-98.488538,142.266537)">
            <path d="M495.599,361.568L513.246,361.568L513.414,378.375L512.238,382.24L495.599,382.24L498.457,392.986L516.607,392.986L520.305,381.904L520.305,351.148L495.599,350.812L495.599,361.568Z" style="fill:rgb(254,255,240);stroke:black;stroke-width:1.19px;"/>
        </g>
    </g>
</svg>
